<?xml version="1.0" standalone="no"?>
<!DOCTYPE svg PUBLIC "-//W3C//DTD SVG 20010904//EN"
 "http://www.w3.org/TR/2001/REC-SVG-20010904/DTD/svg10.dtd">
<svg version="1.0" xmlns="http://www.w3.org/2000/svg"
 width="800.000000pt" height="800.000000pt" viewBox="0 0 800.000000 800.000000"
 preserveAspectRatio="xMidYMid meet">
<metadata>
Created by potrace 1.16, written by Peter Selinger 2001-2019
</metadata>
<g transform="translate(0.000000,800.000000) scale(0.100000,-0.100000)"
fill="#000000" stroke="none">
<path d="M3770 7394 c-378 -34 -676 -101 -990 -221 -431 -165 -812 -409 -1144
-733 -297 -290 -498 -564 -675 -920 -180 -361 -284 -705 -337 -1115 -22 -165
-25 -609 -5 -770 98 -815 438 -1510 1012 -2070 538 -525 1203 -844 1964 -941
174 -23 604 -25 770 -5 323 39 623 114 895 223 869 351 1547 1029 1898 1898
109 272 185 573 223 895 18 144 18 586 0 730 -52 435 -160 795 -352 1175 -173
342 -380 623 -660 895 -541 526 -1201 843 -1961 940 -117 16 -540 28 -638 19z
m460 -805 c618 -57 1165 -314 1606 -754 226 -226 364 -420 505 -710 269 -554
329 -1171 174 -1781 -44 -172 -90 -295 -180 -481 -133 -275 -277 -477 -499
-698 -224 -223 -414 -359 -691 -495 -190 -94 -311 -139 -489 -185 -781 -199
-1578 -42 -2223 438 -133 99 -403 367 -500 497 -488 649 -648 1450 -448 2236
46 178 91 299 185 489 137 279 271 467 495 691 215 215 411 358 673 488 313
156 590 233 972 269 83 8 314 6 420 -4z"/>
<path d="M3527 5810 c-90 -23 -201 -109 -251 -194 -80 -137 -71 -338 19 -444
20 -23 291 -296 601 -607 l565 -565 -580 -599 c-675 -699 -646 -661 -646 -841
0 -96 3 -110 29 -165 38 -77 114 -153 191 -191 55 -26 69 -29 165 -29 185 0
141 -35 867 693 671 672 683 686 742 848 88 240 58 496 -81 711 -40 62 -176
204 -672 699 -568 568 -627 624 -687 654 -54 25 -82 32 -145 36 -44 2 -96 -1
-117 -6z"/>
</g>
</svg>
